{
  "accessors": [
    {
      "bufferView": 2,
      "componentType": 5126,
      "count": 209,
      "max": [
        -0.15425199270248413,
        0.05223799869418144,
        0.5569260120391846
      ],
      "min": [
        -0.3657589852809906,
        -0.05223799869418144,
        0.4600360095500946
      ],
      "type": "VEC3"
    },
    {
      "bufferView": 2,
      "byteOffset": 2508,
      "componentType": 5126,
      "count": 209,
      "max": [
        0.7044016122817993,
        0.9877424836158752,
        0.9999935626983643
      ],
      "min": [
        -0.999448835849762,
        -0.9877734184265137,
        -0.0956018939614296
      ],
      "type": "VEC3"
    },
    {
      "bufferView": 1,
      "componentType": 5126,
      "count": 209,
      "max": [
        0.540270984172821,
        0.9378640055656433
      ],
      "min": [
        0.45559200644493103,
        0.807765007019043
      ],
      "type": "VEC2"
    },
    {
      "bufferView": 0,
      "componentType": 5125,
      "count": 1152,
      "type": "SCALAR"
    },
    {
      "bufferView": 2,
      "byteOffset": 5016,
      "componentType": 5126,
      "count": 16723,
      "max": [
        0.45322299003601074,
        0.5077810287475586,
        0.6196200251579285
      ],
      "min": [
        -0.4774329960346222,
        -0.5059490203857422,
        -0.0021750000305473804
      ],
      "type": "VEC3"
    },
    {
      "bufferView": 2,
      "byteOffset": 205692,
      "componentType": 5126,
      "count": 16723,
      "max": [
        1.0,
        1.0,
        1.0
      ],
      "min": [
        -1.0,
        -1.0,
        -1.0
      ],
      "type": "VEC3"
    },
    {
      "bufferView": 3,
      "componentType": 5126,
      "count": 16723,
      "max": [
        1.0,
        1.0,
        0.9999885559082031,
        1.0
      ],
      "min": [
        -1.0,
        -1.0,
        -0.9999905824661255,
        -1.0
      ],
      "type": "VEC4"
    },
    {
      "bufferView": 1,
      "byteOffset": 1672,
      "componentType": 5126,
      "count": 16723,
      "max": [
        1.0,
        0.9956989884376526
      ],
      "min": [
        0.0,
        0.0
      ],
      "type": "VEC2"
    },
    {
      "bufferView": 0,
      "byteOffset": 4608,
      "componentType": 5125,
      "count": 89874,
      "type": "SCALAR"
    }
  ],
  "asset": {
    "extras": {
      "author": "awerty8 (https://sketchfab.com/awerty8)",
      "license": "CC-BY-4.0 (http://creativecommons.org/licenses/by/4.0/)",
      "source": "https://sketchfab.com/3d-models/toy-spaceship-8cc3efa1537a4f8bbbc477f847a44e74",
      "title": "Toy spaceship"
    },
    "generator": "Sketchfab-12.68.0",
    "version": "2.0"
  },
  "bufferViews": [
    {
      "buffer": 0,
      "byteLength": 364104,
      "name": "floatBufferViews",
      "target": 34963
    },
    {
      "buffer": 0,
      "byteLength": 135456,
      "byteOffset": 364104,
      "byteStride": 8,
      "name": "floatBufferViews",
      "target": 34962
    },
    {
      "buffer": 0,
      "byteLength": 406368,
      "byteOffset": 499560,
      "byteStride": 12,
      "name": "floatBufferViews",
      "target": 34962
    },
    {
      "buffer": 0,
      "byteLength": 267568,
      "byteOffset": 905928,
      "byteStride": 16,
      "name": "floatBufferViews",
      "target": 34962
    }
  ],
  "buffers": [
    {
      "byteLength": 1173496,
      "uri": "scene.bin"
    }
  ],
  "extensionsRequired": [
    "KHR_materials_pbrSpecularGlossiness"
  ],
  "extensionsUsed": [
    "KHR_materials_pbrSpecularGlossiness"
  ],
  "images": [
    {
      "uri": "textures/Material_34_diffuse.png"
    },
    {
      "uri": "textures/Material_34_specularGlossiness.png"
    },
    {
      "uri": "textures/Material_34_emissive.png"
    },
    {
      "uri": "textures/Material_34_normal.png"
    },
    {
      "uri": "textures/Material_34_occlusion.png"
    }
  ],
  "materials": [
    {
      "alphaMode": "BLEND",
      "doubleSided": true,
      "extensions": {
        "KHR_materials_pbrSpecularGlossiness": {
          "diffuseFactor": [
            0.3258251128959449,
            0.2744757295212833,
            0.2744757295212833,
            0.13367505011463324
          ],
          "glossinessFactor": 0.4,
          "specularFactor": [
            0.0,
            0.0,
            0.0
          ]
        }
      },
      "name": "Material_33"
    },
    {
      "doubleSided": true,
      "emissiveFactor": [
        1.0,
        1.0,
        1.0
      ],
      "emissiveTexture": {
        "index": 2
      },
      "extensions": {
        "KHR_materials_pbrSpecularGlossiness": {
          "diffuseFactor": [
            1.0,
            1.0,
            1.0,
            1.0
          ],
          "diffuseTexture": {
            "index": 0
          },
          "glossinessFactor": 1.0,
          "specularFactor": [
            1.0,
            1.0,
            1.0
          ],
          "specularGlossinessTexture": {
            "index": 1
          }
        }
      },
      "name": "Material_34",
      "normalTexture": {
        "index": 3
      },
      "occlusionTexture": {
        "index": 4
      }
    }
  ],
  "meshes": [
    {
      "name": "Object_0",
      "primitives": [
        {
          "attributes": {
            "NORMAL": 1,
            "POSITION": 0,
            "TEXCOORD_0": 2
          },
          "indices": 3,
          "material": 0,
          "mode": 4
        }
      ]
    },
    {
      "name": "Object_1",
      "primitives": [
        {
          "attributes": {
            "NORMAL": 5,
            "POSITION": 4,
            "TANGENT": 6,
            "TEXCOORD_0": 7
          },
          "indices": 8,
          "material": 1,
          "mode": 4
        }
      ]
    }
  ],
  "nodes": [
    {
      "children": [
        1
      ],
      "matrix": [
        1.0,
        0.0,
        0.0,
        0.0,
        0.0,
        2.220446049250313e-16,
        -1.0,
        0.0,
        0.0,
        1.0,
        2.220446049250313e-16,
        0.0,
        0.0,
        0.0,
        0.0,
        1.0
      ],
      "name": "Sketchfab_model"
    },
    {
      "children": [
        2,
        3
      ],
      "name": "ss.obj.cleaner.materialmerger.gles"
    },
    {
      "mesh": 0,
      "name": "Object_2"
    },
    {
      "mesh": 1,
      "name": "Object_3"
    }
  ],
  "samplers": [
    {
      "magFilter": 9729,
      "minFilter": 9987,
      "wrapS": 10497,
      "wrapT": 10497
    }
  ],
  "scene": 0,
  "scenes": [
    {
      "name": "Sketchfab_Scene",
      "nodes": [
        0
      ]
    }
  ],
  "textures": [
    {
      "sampler": 0,
      "source": 0
    },
    {
      "sampler": 0,
      "source": 1
    },
    {
      "sampler": 0,
      "source": 2
    },
    {
      "sampler": 0,
      "source": 3
    },
    {
      "sampler": 0,
      "source": 4
    }
  ]
}
